<?xml version="1.0" encoding="iso-8859-1"?>
<!-- Generator: Adobe Illustrator 19.0.0, SVG Export Plug-In . SVG Version: 6.00 Build 0)  -->
<svg version="1.1" id="Capa_1" xmlns="http://www.w3.org/2000/svg" xmlns:xlink="http://www.w3.org/1999/xlink" x="0px" y="0px"
	 viewBox="0 0 470 470" style="enable-background:new 0 0 470 470;" xml:space="preserve">
<g>
	<path d="M392.505,157.5c0-24.538-5.644-47.781-15.696-68.505C351.283,36.371,297.313,0,235.005,0
		C172.698,0,118.727,36.37,93.201,88.993c-10.053,20.724-15.697,43.968-15.697,68.507c0,68.381,43.809,126.714,104.83,148.431
		c12.371,4.403,25.449,7.299,39.015,8.47l-26.056,38.868c-2.229,3.323-1.455,7.812,1.758,10.197
		c9.02,6.697,19.428,10.813,30.453,12.097V462.5c0,4.143,3.357,7.5,7.5,7.5s7.5-3.357,7.5-7.5v-86.937
		c11.025-1.284,21.433-5.399,30.452-12.096c3.213-2.386,3.986-6.874,1.758-10.197l-26.055-38.869
		c13.566-1.171,26.644-4.067,39.015-8.47C348.696,284.213,392.505,225.881,392.505,157.5z M235.005,361
		c-8.131,0-15.958-1.97-22.983-5.745l22.983-34.285l22.983,34.286C250.963,359.03,243.136,361,235.005,361z M235.005,300
		c-78.575,0-142.5-63.925-142.5-142.5S156.43,15,235.005,15s142.5,63.925,142.5,142.5S313.58,300,235.005,300z"/>
	<path d="M150.742,310.119c-8.221,1.921-16.712,2.895-25.237,2.895c-60.93,0-110.5-49.57-110.5-110.5
		c0-38.637,20.616-74.987,53.803-94.867c3.484-2.087,4.654-6.554,2.691-10.077c-0.039-0.07-0.071-0.142-0.112-0.211
		c-2.128-3.553-6.734-4.71-10.288-2.579c-18.28,10.95-33.587,26.482-44.265,44.918c-11.01,19.008-16.829,40.729-16.829,62.816
		c0,64.619,49.092,117.98,111.937,124.765l-19.004,28.35c-2.229,3.324-1.454,7.812,1.759,10.197
		c6.935,5.15,14.884,8.411,23.309,9.628V462.5c0,4.143,3.357,7.5,7.5,7.5s7.5-3.357,7.5-7.5v-87.046
		c8.426-1.217,16.375-4.479,23.311-9.629c3.213-2.386,3.986-6.874,1.758-10.197l-19.006-28.351c5.087-0.547,10.13-1.393,15.087-2.55
		c4.033-0.942,6.54-4.977,5.598-9.01c-0.019-0.082-0.047-0.159-0.069-0.239C158.638,311.587,154.687,309.201,150.742,310.119z
		 M125.505,361c-5.526,0-10.865-1.207-15.744-3.529l15.744-23.487l15.745,23.486C136.372,359.793,131.031,361,125.505,361z"/>
	<path d="M469.995,202.514c0-22.087-5.819-43.809-16.829-62.816c-10.678-18.436-25.984-33.968-44.265-44.918
		c-3.554-2.129-8.159-0.975-10.288,2.579c-0.041,0.068-0.072,0.139-0.111,0.208c-1.965,3.524-0.795,7.993,2.69,10.08
		c33.187,19.88,53.803,56.23,53.803,94.867c0,60.93-49.57,110.5-110.5,110.5c-8.525,0-17.017-0.974-25.237-2.895
		c-3.949-0.92-7.894,1.466-8.94,5.356c-0.022,0.081-0.05,0.159-0.069,0.241c-0.942,4.033,1.564,8.067,5.598,9.01
		c4.957,1.158,10,2.003,15.087,2.55l-19.006,28.351c-2.229,3.323-1.455,7.812,1.758,10.197c6.938,5.152,14.891,8.415,23.32,9.631
		V462.5c0,4.143,3.357,7.5,7.5,7.5s7.5-3.357,7.5-7.5v-87.047c8.421-1.218,16.366-4.479,23.299-9.627
		c3.213-2.386,3.987-6.873,1.759-10.197l-19.004-28.35C420.904,320.494,469.995,267.132,469.995,202.514z M344.495,361
		c-5.526,0-10.867-1.207-15.745-3.53l15.745-23.486l15.744,23.487C355.36,359.793,350.021,361,344.495,361z"/>
	<path d="M257.2,168.542c-3.901-1.392-8.191,0.651-9.578,4.555c-1.894,5.325-6.964,8.903-12.617,8.903s-10.725-3.578-12.618-8.904
		c-1.389-3.903-5.679-5.944-9.579-4.554c-3.902,1.388-5.941,5.677-4.554,9.579C212.269,189.413,223.02,197,235.005,197
		c11.986,0,22.736-7.587,26.75-18.88C263.143,174.218,261.104,169.929,257.2,168.542z"/>
	<path d="M210.813,131.504V125.5c0-4.143-3.357-7.5-7.5-7.5h-21.015c-4.143,0-7.5,3.357-7.5,7.5s3.357,7.5,7.5,7.5h13.664
		c0.693,3.426,3.721,6.004,7.351,6.004C207.455,139.004,210.813,135.646,210.813,131.504z"/>
	<path d="M287.712,118h-21.015c-4.143,0-7.5,3.357-7.5,7.5v6.004c0,4.143,3.357,7.5,7.5,7.5c3.63,0,6.657-2.578,7.351-6.004h13.664
		c4.143,0,7.5-3.357,7.5-7.5S291.854,118,287.712,118z"/>
	<path d="M242.505,37.5c0-4.143-3.357-7.5-7.5-7.5c-45.572,0-87.999,24.649-110.722,64.33c-2.058,3.594-0.813,8.177,2.782,10.235
		c1.175,0.673,2.456,0.992,3.72,0.992c2.601,0,5.13-1.354,6.516-3.774C157.357,66.758,194.796,45,235.005,45
		C239.147,45,242.505,41.643,242.505,37.5z"/>
	<path d="M121.26,118.525c-3.992-1.099-8.121,1.253-9.218,5.247c-3.011,10.965-4.537,22.313-4.537,33.728c0,4.143,3.357,7.5,7.5,7.5
		s7.5-3.357,7.5-7.5c0-10.073,1.347-20.085,4.002-29.757C127.604,123.749,125.255,119.622,121.26,118.525z"/>
</g>
<g>
</g>
<g>
</g>
<g>
</g>
<g>
</g>
<g>
</g>
<g>
</g>
<g>
</g>
<g>
</g>
<g>
</g>
<g>
</g>
<g>
</g>
<g>
</g>
<g>
</g>
<g>
</g>
<g>
</g>
</svg>
